<?xml version="1.0" encoding="UTF-8"?>
<svg id="Layer_2" data-name="Layer 2" xmlns="http://www.w3.org/2000/svg" viewBox="0 0 430.88 399.98">
  <defs>
    <style>
      .cls-1, .cls-2, .cls-3 {
        opacity: .7;
      }

      .cls-4, .cls-5, .cls-6, .cls-7, .cls-3 {
        fill: #fff;
      }

      .cls-2, .cls-8, .cls-9, .cls-10, .cls-11 {
        fill: #ffc727;
      }

      .cls-12 {
        fill: #37474f;
      }

      .cls-5 {
        opacity: .4;
      }

      .cls-13 {
        fill: #455a64;
      }

      .cls-14 {
        fill: #a6a6a6;
      }

      .cls-8, .cls-6 {
        opacity: .5;
      }

      .cls-15 {
        opacity: .05;
      }

      .cls-7, .cls-9 {
        opacity: .8;
      }

      .cls-16 {
        fill: #c7c7c7;
      }

      .cls-17 {
        opacity: .1;
      }

      .cls-11 {
        opacity: .2;
      }

      .cls-18 {
        fill: #263238;
      }
    </style>
  </defs>
  <g id="Plate">
    <g>
      <g class="cls-15">
        <ellipse cx="211.28" cy="313.44" rx="208.51" ry="86.54"/>
      </g>
      <g>
        <g>
          <ellipse class="cls-4" cx="211.28" cy="283.05" rx="210.78" ry="97.5"/>
          <path class="cls-18" d="m422.06,283.05c-.03,18.76-11.69,34.84-25.47,46.56-34.67,28.15-79.51,40.02-122.9,46.78-70.17,9.52-150.1,4.63-214.89-25.61C32.03,337.74.66,315.85,0,283.05c.64-32.79,32.05-54.7,58.81-67.73,64.78-30.23,144.73-35.13,214.89-25.61,43.38,6.75,88.23,18.62,122.9,46.78,13.76,11.72,25.44,27.81,25.47,46.57h0Zm0,0c-.07-18.75-11.75-34.8-25.54-46.48-34.7-28.06-79.52-39.83-122.88-46.49-70.06-9.36-149.87-4.33-214.49,25.97C32.75,228.99,1.61,250.68,1,283.05c.59,32.36,31.79,54.08,58.16,67,64.6,30.3,144.43,35.33,214.49,25.97,43.36-6.66,88.18-18.43,122.88-46.49,13.78-11.68,25.47-27.74,25.54-46.48h0Z"/>
        </g>
        <path class="cls-13" d="m211.28,362.39c-107.41,0-194.78-38-194.78-84.72s87.38-84.72,194.78-84.72,194.78,38,194.78,84.72-87.38,84.72-194.78,84.72Zm0-165.12c-101.93,0-184.86,36.07-184.86,80.4s82.93,80.4,184.86,80.4,184.86-36.07,184.86-80.4-82.93-80.4-184.86-80.4Z"/>
      </g>
    </g>
  </g>
  <g id="Boiled_egg_1" data-name="Boiled egg 1">
    <g>
      <g>
        <g>
          <ellipse class="cls-13" cx="211.28" cy="222.55" rx="67.63" ry="51.48"/>
          <ellipse class="cls-5" cx="211.28" cy="222.55" rx="67.63" ry="51.48"/>
          <path class="cls-17" d="m278.9,222.56c0,28.43-30.28,51.48-67.62,51.48s-67.63-23.06-67.63-51.48c0-.44,0-.89.02-1.33,0-.43.03-.85.07-1.28v-.05c.02-.25.03-.5.06-.75.02-.3.06-.61.09-.91.03-.36.08-.73.14-1.09.03-.3.07-.59.12-.88.03-.19.06-.39.1-.57.04-.24.08-.48.13-.71.05-.28.11-.56.17-.84.02-.14.06-.28.09-.42.05-.24.11-.48.17-.71.07-.28.13-.56.21-.84.5-1.87,1.14-3.71,1.9-5.51.14-.34.29-.67.44-1,.19-.42.39-.84.6-1.26.15-.31.31-.63.48-.94.12-.25.25-.49.39-.74.17-.33.35-.65.54-.96.21-.36.42-.71.64-1.07,1.26-2.05,2.68-4.02,4.28-5.91.23-.27.46-.54.7-.81.25-.29.5-.57.75-.85.23-.25.47-.52.71-.76.09-.11.19-.21.28-.3.24-.25.48-.49.73-.73.45-.46.92-.91,1.39-1.35.36-.34.72-.66,1.09-.99,1.64-1.45,3.38-2.83,5.22-4.13.3-.22.62-.43.93-.66.12-.08.25-.16.37-.25.38-.25.76-.51,1.15-.75-4.69,4.23-8.44,9.09-10.99,14.39,0,0,0,.02,0,.02l-.02.03c-.16.45-1.21,3.88,1.1,7.43,2.54,3.9,12.28,4.7,14.97-4.12,1.75-5.74-5.05-17.76-5.05-17.76,9.7-6.24,21.73-10.44,34.95-11.74,4.92,7.04,8.7,15.97,8.7,26.82,0,31.15-38.42,37.97-53.17,35.19,9.77,16.89,31.95,28.68,57.75,28.68,32.93,0,59.98-19.22,62.82-43.72.02.25.05.52.07.77.02.11.02.24.03.35.02.23.03.45.04.68.05.76.07,1.53.07,2.29Z"/>
          <path class="cls-17" d="m261.29,187.9c-12.92,17.11-31.38,24.84-50.01,24.84s-37.09-7.74-50.01-24.84c12.37-10.35,30.19-16.83,50.01-16.83s37.64,6.49,50.01,16.83Z"/>
        </g>
        <g>
          <path class="cls-13" d="m278.94,120.6c0,61.94-33.56,87.87-67.66,87.87s-67.66-25.93-67.66-87.87c0,0,15.48,34.11,67.66,34.11,52.18,0,67.66-34.11,67.66-34.11Z"/>
          <path class="cls-5" d="m278.94,120.6c0,61.94-33.56,87.87-67.66,87.87s-67.66-25.93-67.66-87.87c0,0,15.48,34.11,67.66,34.11,52.18,0,67.66-34.11,67.66-34.11Z"/>
          <path class="cls-17" d="m278.94,120.6c0,1.67-.02,3.31-.08,4.93-1.24,2.55-17.53,33.94-67.58,33.94-20.47,0-35.28-5.24-45.73-11.62,10.12,33.89,35,48.64,60.2,48.64,11.51,0,22.96-3.08,32.96-9.65-12.73,14.87-30,21.63-47.42,21.63-33.19,0-65.85-24.56-67.58-82.94-.03-.72-.05-1.45-.06-2.18-.02-.91-.02-1.82-.02-2.75,0,0,0,0,0,.02.11.23,1.02,2.14,2.98,4.95.21.31.44.63.69.97.63.87,1.35,1.8,2.18,2.8.22.27.46.55.71.84.49.57,1.02,1.16,1.58,1.75.24.26.48.53.74.79.57.58,1.16,1.17,1.78,1.76.16.16.33.31.49.47.23.22.47.43.71.66,1.4,1.27,2.95,2.56,4.65,3.84.38.28.77.57,1.16.85.43.32.88.62,1.33.93.42.3.85.57,1.28.85.03.02.07.04.1.07,10.53,6.81,25.79,12.59,47.27,12.59,52.17,0,67.66-34.11,67.66-34.11Z"/>
        </g>
        <g>
          <g>
            <ellipse class="cls-13" cx="211.28" cy="101.92" rx="72.8" ry="55.42"/>
            <ellipse class="cls-5" cx="211.28" cy="101.92" rx="72.8" ry="55.42"/>
          </g>
          <path class="cls-6" d="m284.08,101.92c0,30.61-32.6,55.42-72.8,55.42s-72.8-24.81-72.8-55.42c0-7.43,1.93-14.53,5.42-21.01-2.76,5.79-4.26,12.04-4.26,18.56,0,30.12,32.07,54.54,71.64,54.54s71.64-24.42,71.64-54.54c0-6.51-1.5-12.77-4.26-18.56,3.49,6.48,5.42,13.58,5.42,21.01Z"/>
          <ellipse class="cls-12" cx="211.28" cy="98.44" rx="63.9" ry="47.13"/>
        </g>
      </g>
      <g>
        <path class="cls-10" d="m263.53,124.05c-11.06,12.34-32.97,20.24-51.43,20.24s-42.02-7.9-53.08-20.24c-22.86-25.51-17.8-60.57-7.95-82.88,6.94-15.73,18.22-29.23,31.08-37.77,1.25-.8,12.34.71,12.34.71l7.77-4.09,7.24,3,14.87,2.05,8.19-1.5,7.09,5.05,7.07-.52c10.21,8.43,18.99,19.99,24.77,33.08,9.85,22.32,14.92,57.38-7.95,82.88Z"/>
        <path class="cls-7" d="m263.53,124.05c-11.06,12.34-32.97,20.24-51.43,20.24s-42.02-7.9-53.08-20.24c-22.86-25.51-17.8-60.57-7.95-82.88,6.94-15.73,18.22-29.23,31.08-37.77,1.25-.8,12.34.71,12.34.71l7.77-4.09,7.24,3,14.87,2.05,8.19-1.5,7.09,5.05,7.07-.52c10.21,8.43,18.99,19.99,24.77,33.08,9.85,22.32,14.92,57.38-7.95,82.88Z"/>
        <path class="cls-11" d="m263.53,124.05c-11.06,12.34-32.97,20.24-51.43,20.24s-42.02-7.9-53.08-20.24c-22.86-25.51-17.8-60.57-7.95-82.88,1.79-4.04,3.86-7.94,6.18-11.65-.13.36-4.23,12.02-3.68,15.39.54,3.44,1.09,16.89,1.09,16.89l2.59,1.28s.89,4.52,1.09,5.34c.2.82,6.68,8.66,7.56,9.14s16.17,1.84,17.67,2.25c1.49.41,9.54,5.6,9.54,5.6,0,0,10.92,2.86,11.73,3,.82.13,7.37,2.04,7.37,2.04h17.6l15.15-8.19,8.05-5.87,7.09-9.27v-10.37l4.23-4.09v-10.5l2.59-4.91-2.07-8.44c2.49,3.91,4.73,8.05,6.62,12.36,9.85,22.32,14.92,57.38-7.95,82.88Z"/>
        <path class="cls-11" d="m260.74,126.86c-11.68,10.72-31.63,17.43-48.64,17.43-18.45,0-42.02-7.9-53.08-20.24-22.86-25.51-17.8-60.57-7.95-82.88,1.79-4.04,3.86-7.94,6.18-11.65-.13.36-4.23,12.02-3.68,15.39.54,3.44,1.09,16.89,1.09,16.89l2.59,1.28s.11.57.26,1.35c-1.85,18.07,1.27,37.91,14.78,53.97,10.37,12.34,32.48,20.25,49.79,20.25,12.95,0,27.69-4.41,38.65-11.8Z"/>
        <g>
          <path class="cls-2" d="m173.35,39.43c-.91,1.7,0,5.73,0,7.78s-.14,2.86,0,3.82c.14.95,1.91,2.73,1.91,3.96s.08,4.91-.99,6.41c-1.06,1.5-3.24,4.64-2.83,5.87.41,1.23,2.87,3.82,3.82,3.96.95.14,2.05,1.5,4.09,2.73s4.77.96,4.5,3.41c-.27,2.45-.68,3.55-.68,3.55,0,0,0,6.82,2.46,10.5,2.46,3.68,12.23,6.69,15.78,9.37,4.46,3.36,5.66,10.49,3.18,9.64-9-3.09-7.06,1.39-5.1,3.94,3.14,4.09,7.69,10.33,7.96,12.93.27,2.59-.68,12.55,7.91,12.55s4.23-20.74,5.32-24.96c1.09-4.23,15.28-11.73,18.01-14.73s4.09-9.28,7.5-12c3.41-2.73,6.69-9.28,6.82-11.74.13-2.45,2.59-9.68,3.27-11.46.68-1.77-.14-11.87,0-14.6.14-2.73-4.64-7.23-6.41-10.91-1.77-3.68-15.14-11.73-18.14-12.14-3-.41-12.55,2.09-15.69,1.52-3.14-.56-12.41-3.84-14.6-3.16-2.18.68-2.05,6-3.14,7.37-1.09,1.36-3.41,4.09-6.14,4.5-2.73.41-8.19-.14-10.23.14-2.05.27-7.64,0-8.59,1.77Z"/>
          <g class="cls-1">
            <path class="cls-4" d="m174.61,68.52c-1.18-2.71,1.31-5.13,2.33-7.44,1.39-3.47,2.43-7.19.57-10.71-1.14-2.43-2.12-5.04-1.79-7.79.05-.68.33-1.5.95-2,2.89-1.97,6.73-1.75,9.97-1.77,0,0,3.94.09,3.94.09,2.44.13,4.92-.63,7.15-1.58.81-.41,1.71-.81,2.07-1.61.33-1.9-.45-4.33.43-6.32.29-.68.88-1.2,1.59-1.36,0,0,.07.19.07.19-2.53,1.53-.05,5.46-.49,7.82-.83,2.83-4.22,3.7-6.66,4.53-1.23.39-2.88.54-4.22.41-2.3-.16-5.59-.44-7.85-.5-1.97.04-5.91-.39-6.28,2.19-.13,1.2-.14,2.62.25,3.77.94,2.59,3.01,4.38,3.57,7.27.19,1.5-.04,2.88-.38,4.21-.59,2.69-2.11,5.03-3.87,7.09-.71,1.03-1.37,2.15-1.15,3.45l-.19.06h0Z"/>
            <path class="cls-4" d="m229.41,89.12c1.68-1.12,3.31-2.29,5.19-3.01,1.97-.53,3.91-1.16,5.46-2.57,1.12-.97,2.44-1.84,3.65-2.68,2.12-1.55,4.09-2.89,6.65-3.59l.11.17c-.97,1.24-2.07,2.26-3.2,3.29-.56.49-.92.89-1.44,1.29-1.64,1.05-3.39,1.87-5.24,2.48-3.08.77-4.96,3.58-8.02,4.39-.98.29-2.02.61-3.15.44v-.2h-.01Z"/>
            <path class="cls-4" d="m188.21,80.81c2.51-.11,4.79,1.7,6.93,2.76,2.16.96,4.46,1.93,6.67,2.81,2.9,1.05,6.01,1.34,8.94,2.33,3.24.23,6.79-.31,10.12-.2,1.65.02,3.31.02,5,.34l-.02.2c-4.9,1.09-9.78,2.24-14.88,1.59-.32-.04-.8-.18-1.15-.32-.84-.41-2.69-1.24-3.57-1.65-3-1.48-6.25-2.07-9.51-2.62-1.64-.26-3.26-1.36-4.56-2.35-1.34-.95-2.51-2.08-3.99-2.7v-.2h.01Z"/>
            <path class="cls-4" d="m237.27,98.5c-1.62,2.85-4.62,4.65-7.29,6.4-3.58,1.72-7.02,3.94-9.24,7.31-.73,1-1.05,1.68-1.12,2.84-.41,4.35-.36,8.58-.74,13.04l-.2.02c-1.34-4.39-2.82-13.48.84-16.94,1.79-1.72,3.98-2.9,5.87-4.46,1.26-1,2.4-2.18,3.66-3.19,2.48-2.02,5.47-3.29,8.06-5.12,0,0,.17.1.17.1h0Z"/>
          </g>
          <path class="cls-9" d="m256.52,58.78c-.16.97-.72,4.45-1.19,5.61-.55,1.36-1.82,6.82-3,8.37-1.18,1.54-2.45,2.54-5.64,3.63s-7.82,4.55-10.64,5.37c-2.82.82-7.28.64-10.19.94-2.9.29-12,1.43-15.37,1.25-3.36-.18-12.73-2.82-15.73-3.04-2.96-.21-10.92-1.97-10.92-3.5,0-.02,0-.04,0-.07,0-.06,0-.11,0-.17.12-2.27-2.52-2.04-4.51-3.23-.88-.53-1.58-1.07-2.17-1.54-.48-1.87-.34-4.23-.34-5.37,0-1.81,3.91-12.82,4.18-14.73.27-1.91-3.36-8.1-2.82-9.1.55-1,6.28-2,9.19-1.91,2.9.09,12.82-2.36,14.1-4.09,1.27-1.73,2.18-8.1,3-9.1.81-1,2.81-.54,8.28-.11h0c1.33.37,2.49.68,3.27.82,3.13.56,12.68-1.94,15.69-1.53,2.99.41,16.37,8.46,18.14,12.14,1.77,3.68,6.55,8.19,6.42,10.91-.07,1.49.13,5.14.23,8.44Z"/>
        </g>
      </g>
    </g>
  </g>
  <g id="Boiled_egg_2" data-name="Boiled egg 2">
    <g>
      <g>
        <path class="cls-10" d="m283.06,232.2c0,9.84-10.56,61.29-64.9,61.29-67.99,0-99.92-42.75-99.92-63.61s56.78-33.36,94.24-31.68c40.2,1.8,70.59,14.94,70.59,33.99Z"/>
        <path class="cls-7" d="m283.06,232.2c0,9.84-10.56,61.29-64.9,61.29-67.99,0-99.92-42.75-99.92-63.61s56.78-33.36,94.24-31.68c40.2,1.8,70.59,14.94,70.59,33.99Z"/>
        <path class="cls-3" d="m212.44,252.03c58.9,2.57,70.34-14.42,70.34-22.92-3.1-17.38-32.33-29.2-70.31-30.91-31.26-1.4-76,7.08-89.93,22.05,0,0,0,.02,0,.02-4.21,11.52,31.02,29.17,89.9,31.75Z"/>
        <g>
          <path class="cls-10" d="m258.59,223.53c1.64,9.86-11.85,18.03-44.3,16.14-32.45-1.89-51.33-8.76-50.3-17.51,1.03-8.76,35.37-15.45,61.29-12.88,21.03,2.09,32.62,10.13,33.31,14.25Z"/>
          <path class="cls-5" d="m256.46,223.59c1.53,9.2-11.05,16.82-41.33,15.06-30.27-1.76-47.9-8.17-46.93-16.34.96-8.17,33-14.42,57.19-12.01,19.62,1.95,30.43,9.45,31.08,13.3Z"/>
        </g>
        <path class="cls-15" d="m206.58,293.05c-60.04-4.49-88.34-43.53-88.34-63.17,0-13.94,25.38-24.15,53.4-28.89h.01c-4.84,2.71-11.9,34.21,40.79,51.04,0,0-35.27,4.11-35.76,16.08-.48,11.61,19.06,23.85,29.9,24.94Z"/>
      </g>
      <g>
        <g>
          <path class="cls-10" d="m144.87,149.17c25.38,12.44,31.53,65.41,8.25,106.12-23.27,40.71-76.53,50.69-107.02,21.1-14.26-13.85-17.46-47.01,15.44-85.29,32.89-38.28,63.29-51.75,83.33-41.93Z"/>
          <path class="cls-7" d="m144.87,149.17c25.38,12.44,31.53,65.41,8.25,106.12-23.27,40.71-76.53,50.69-107.02,21.1-14.26-13.85-17.46-47.01,15.44-85.29,32.89-38.28,63.29-51.75,83.33-41.93Z"/>
        </g>
        <path class="cls-3" d="m42.23,271.74c30.07,24.27,80.57-2.95,99.57-26.44,19.01-23.49,24.66-59.86,17.98-80.7-3.75-7.02-8.76-12.42-14.91-15.43-20.03-9.82-50.43,3.65-83.32,41.93-29.65,34.51-29.98,64.86-19.31,80.65Z"/>
        <g>
          <path class="cls-10" d="m127.88,179.47c11.63,4.96,20.51,26.84,2.45,54.54-18.06,27.7-51.57,32.93-65.16,25.35-13.58-7.59-12.91-37.24,8.25-57.2,21.15-19.96,42.98-27.6,54.46-22.69Z"/>
          <path class="cls-5" d="m126.48,180.9c10.86,4.64,19.15,25.06,2.29,50.93-16.86,25.87-48.15,30.75-60.84,23.67-12.68-7.08-12.05-34.77,7.7-53.4,19.75-18.63,40.13-25.77,50.85-21.19Z"/>
        </g>
      </g>
    </g>
  </g>
  <g id="Spoon">
    <g>
      <path class="cls-16" d="m195.96,299.5c16.88-4.55,29.61-30.39,42.96-38.12,13.35-7.73,56.12-19.65,77.46-24.19,28.34-6.03,101.58-7.82,107.74-10.45,6.16-2.62,7.19-9.82,5.14-15.72-2.05-5.89-7.61-10.32-15.28-9.3-7.67,1.02-91.02,21.84-115.65,29.72-24.63,7.88-55.73,20.86-64.79,23.31-9.06,2.45-21.67-3.43-40.74-3.95-36.82-1-63.79,16.41-66.47,25.81-4.97,17.4,39.94,30.88,69.62,22.88Z"/>
      <path class="cls-14" d="m421.94,206.97c4.55,2.77,6.84,11.55,1.71,14.73-1.7.84-3.72.87-5.59,1.15-6.79.79-16.82,1.32-23.76,1.8-23.84,1.63-47.82,2.84-71.38,7.33-23.39,5.14-46.22,12.47-68.6,20.9,22.83-6.81,45.79-13.5,69.12-18.3,15.56-2.9,31.46-4.21,47.24-5.67,15.27-1.54,35.58-2.56,50.53-5.28,8.64-1.12,7.06-13.47.72-16.67h0Z"/>
      <path class="cls-4" d="m344.09,220.52c-13.08,2.32-25.88,5.97-38.65,9.58-12.76,3.71-25.14,8.56-37.6,13.14,9.48-3.03,18.9-6.27,28.33-9.41,15.87-4.77,31.82-9.37,47.92-13.31h0Z"/>
      <path class="cls-4" d="m214.62,256.33c-9.92-2.25-19.88-2.79-29.61-2.39-9.69.73-19.02,2.75-28.4,4.63,8.45-1.06,20.15-3.1,28.6-3.51,9.71-.23,19.53.1,29.41,1.28h0Z"/>
      <path class="cls-14" d="m218.38,279.12c-6.12,2.61-11.62,6.57-17.48,9.65-2.91,1.53-5.84,3.02-8.87,4.15-2.85,1.05-6.14,1.43-9.38,1.62-6.56.48-13.23.19-19.84,0-5.87-.18-10.57-.73-16.36-.51,6.65,1.11,9.59,2.27,16.28,2.95,6.7.68,13.43,1.11,20.21.68,3.38-.27,6.8-.63,10.17-1.98,9.4-3.9,17-10.77,25.26-16.57h0Z"/>
    </g>
  </g>
  <g id="Toast">
    <g>
      <g>
        <g>
          <path class="cls-10" d="m430.76,254.12h-.05c.39,1.25.1,2.62-1.17,3.85l-111.66,109.11c-4.43,4.33-12.43,5.93-19.31,3.86l-173.15-52.01c-2-.6-3.24-1.72-3.77-2.97l-.27-1.74-1.75-11.01,309.43-60.47,1.68,11.37Z"/>
          <path class="cls-17" d="m430.76,254.12h-.05c.39,1.25.1,2.62-1.17,3.85l-111.66,109.11c-4.43,4.33-12.43,5.93-19.31,3.86l-173.15-52.01c-2-.6-3.24-1.72-3.77-2.97l-.27-1.74-1.75-11.01,309.43-60.47,1.68,11.37Z"/>
        </g>
        <path class="cls-10" d="m124.5,298.06l296.19-59.39c6.08-1.22,10.85,3.76,7.1,7.42l-111.66,109.11c-4.44,4.34-12.42,5.94-19.31,3.87l-173.14-52.01c-5.81-1.74-5.25-7.79.83-9.01Z"/>
        <path class="cls-10" d="m121.67,315.97c-.24-.56-.33-1.15-.27-1.74l.27,1.74Z"/>
        <path class="cls-8" d="m419.31,242.28c-.06.82-.44,1.67-1.24,2.45l-105.28,102.86c-4.18,4.1-11.71,5.61-18.21,3.65l-163.24-49.03c-1.23-.37-2.16-.95-2.8-1.64.1-1.82,1.67-3.6,4.6-4.19l279.25-55.99c2.93-.59,5.53.36,6.91,1.88Z"/>
        <path class="cls-6" d="m419.31,242.28c-.06.82-.44,1.67-1.24,2.45l-105.28,102.86c-4.18,4.1-11.71,5.61-18.21,3.65l-163.24-49.03c-1.23-.37-2.16-.95-2.8-1.64.1-1.82,1.67-3.6,4.6-4.19l279.25-55.99c2.93-.59,5.53.36,6.91,1.88Z"/>
        <g>
          <path class="cls-10" d="m308.54,316.39s-.01,0-.02-.02c-.03-.04-.07-.07-.1-.11-.03-.03-.05-.06-.09-.08-.15-.14-.35-.26-.62-.34-1.56-.46-2.76,1.01-1.65,1.84,1.18.88,3.31-.21,2.47-1.3Z"/>
          <path class="cls-10" d="m190,295.11s-.01-.01-.01-.02c-.03-.04-.07-.07-.1-.11-.03-.03-.05-.06-.09-.08-.15-.14-.35-.26-.62-.34-1.56-.46-2.76,1.01-1.65,1.84,1.18.88,3.31-.21,2.47-1.3Z"/>
          <path class="cls-10" d="m365.67,283.75s-.01,0-.02-.02c-.03-.04-.07-.07-.1-.11-.03-.03-.05-.06-.09-.08-.15-.14-.35-.26-.62-.34-1.56-.46-2.76,1.01-1.65,1.84,1.18.88,3.31-.21,2.47-1.3Z"/>
          <path class="cls-10" d="m310.98,314.4s-.03,0-.05,0c-.29,0-.57.07-.74.26,0,0,0,0,0,0-.01,0-.01.02-.02.03-.01.02-.03.03-.04.05-.72.77.95,1.63,1.71.82.57-.6-.16-1.13-.86-1.17Z"/>
          <path class="cls-10" d="m186.08,291.06s-.03,0-.05,0c-.29,0-.57.07-.74.26,0,0,0,0,0,0-.01,0-.01.02-.02.03-.01.02-.03.03-.04.05-.72.77.95,1.63,1.71.82.57-.6-.16-1.13-.86-1.17Z"/>
          <path class="cls-10" d="m240.71,313.7s-.03,0-.05,0c-.29,0-.57.07-.74.26,0,0,0,0,0,0-.01,0-.01.02-.02.03-.01.02-.03.03-.04.05-.72.77.95,1.63,1.71.82.57-.6-.16-1.12-.86-1.17Z"/>
          <path class="cls-10" d="m392.77,258.44s-.03,0-.05,0c-.29,0-.57.07-.74.26,0,0,0,0,0,0-.01,0-.01.02-.02.03-.01.02-.03.03-.04.05-.72.77.95,1.63,1.71.82.57-.6-.16-1.13-.86-1.17Z"/>
          <path class="cls-10" d="m314.81,320.32c-.86-1.16-3.4-.73-3.42.6-.02,1.1,1.86,1.68,2.77,1.03.72-.33,1.14-.97.65-1.63Z"/>
          <path class="cls-10" d="m193.19,290.88c-.86-1.15-3.4-.73-3.42.6-.02,1.1,1.86,1.68,2.77,1.03.72-.33,1.14-.97.65-1.63Z"/>
          <path class="cls-10" d="m329.17,268.85s.02,0,.03,0c.06,0,.12-.03.17-.04.05-.01.09-.02.13-.03.23-.06.46-.15.66-.31,1.13-.91-.4-2.2-1.87-1.72-1.55.51-.82,2.32.88,2.1Z"/>
          <path class="cls-10" d="m323.89,271.32s0-.02.01-.03c.11-.2.1-.41-.1-.59,0,0,0,0,0,0,0-.01-.02-.01-.03-.02-.02-.01-.03-.03-.06-.04-.77-.74-2.45.12-1.65.9.6.59,1.53.25,1.82-.21Z"/>
          <path class="cls-10" d="m275.65,276.44s0-.02,0-.03c-.02-.21-.16-.4-.44-.5,0,0,0,0,0,0-.01,0-.03,0-.04-.01-.03,0-.05-.02-.08-.02-1.15-.42-2.14.87-.95,1.32.9.34,1.54-.25,1.52-.75Z"/>
          <path class="cls-10" d="m348.13,302.21s0-.02,0-.03c-.02-.21-.16-.4-.44-.5,0,0,0,0,0,0-.01,0-.03,0-.04-.01-.03,0-.05-.02-.08-.02-1.15-.42-2.14.87-.95,1.32.9.34,1.54-.25,1.52-.75Z"/>
          <path class="cls-10" d="m173.57,309.26s0-.02,0-.03c-.02-.21-.16-.4-.44-.5,0,0,0,0,0,0-.01,0-.03,0-.04-.01-.03,0-.05-.02-.08-.02-1.15-.42-2.14.87-.95,1.32.9.34,1.54-.25,1.52-.75Z"/>
          <path class="cls-10" d="m251.89,331.81c1.8-.21,2.09-2.07.35-2.52-1.44-.37-2.82.72-2.27,1.55.19.59.89,1.09,1.92.97Z"/>
          <path class="cls-10" d="m389.99,259.45c-.86-1.16-3.4-.73-3.42.6-.02,1.1,1.86,1.68,2.77,1.03.72-.33,1.14-.97.65-1.63Z"/>
        </g>
        <path class="cls-15" d="m336.52,269.85c-1.57,1.58-1.96,3.57-1.01,5.28l4.37,7.78c1.56,2.76-.42,5.99-4.44,7.24l-9.39,2.9c-1.6.49-2.95,1.33-3.84,2.4l-1.98,2.4c-4.84,5.77-13.13,9.74-22.4,10.7l-3.84.4c-1.71.17-3.31.74-4.57,1.61l-7.36,5.12c-3.16,2.17-8.03,2.21-10.97.12l-8.26-5.92c-1.82-1.31-4.51-1.83-7.13-1.4l-18.04,3.05c-4.03.67-7.95-.97-8.99-3.74l-3.71-10.32c-.74-2-3.05-3.5-5.94-3.82l-11.9-1.31c-4.79-.55-7.47-4.09-5.58-7.33l1.57-2.63,144.99-29.07c1.31,1.75,1.14,3.99-.66,5.77l-10.9,10.77Z"/>
      </g>
      <g>
        <g>
          <path class="cls-10" d="m349.07,294.98h-.05c.24,1.28-.21,2.61-1.6,3.69l-123.48,95.55c-4.9,3.79-13.02,4.45-19.6,1.6l-165.68-71.82c-1.91-.83-3.01-2.08-3.39-3.39l-.07-1.76-.45-11.15,313.98-24.22.34,11.5Z"/>
          <path class="cls-17" d="m349.07,294.98h-.05c.24,1.28-.21,2.61-1.6,3.69l-123.48,95.55c-4.9,3.79-13.02,4.45-19.6,1.6l-165.68-71.82c-1.91-.83-3.01-2.08-3.39-3.39l-.07-1.76-.45-11.15,313.98-24.22.34,11.5Z"/>
        </g>
        <path class="cls-10" d="m40.16,303.13l300.71-24.68c6.17-.51,10.32,5,6.18,8.21l-123.48,95.55c-4.91,3.8-13.02,4.47-19.6,1.61l-165.67-71.82c-5.56-2.41-4.3-8.36,1.87-8.87Z"/>
        <path class="cls-10" d="m35.27,320.61c-.17-.59-.19-1.18-.07-1.76l.07,1.76Z"/>
        <path class="cls-8" d="m339.08,281.88c-.15.81-.63,1.61-1.51,2.29l-116.42,90.08c-4.63,3.6-12.27,4.22-18.49,1.52l-156.2-67.7c-1.18-.51-2.03-1.2-2.58-1.95.31-1.8,2.07-3.39,5.05-3.63l283.52-23.27c2.97-.24,5.45,1,6.64,2.67Z"/>
        <path class="cls-6" d="m339.08,281.88c-.15.81-.63,1.61-1.51,2.29l-116.42,90.08c-4.63,3.6-12.27,4.22-18.49,1.52l-156.2-67.7c-1.18-.51-2.03-1.2-2.58-1.95.31-1.8,2.07-3.39,5.05-3.63l283.52-23.27c2.97-.24,5.45,1,6.64,2.67Z"/>
        <g>
          <path class="cls-10" d="m220.57,342.72s0-.01-.01-.02c-.02-.04-.06-.08-.09-.12-.02-.03-.05-.06-.07-.09-.14-.16-.31-.3-.58-.41-1.5-.64-2.86.68-1.85,1.64,1.06,1.01,3.31.17,2.6-1Z"/>
          <path class="cls-10" d="m105.48,307.8s0-.01-.01-.02c-.02-.04-.06-.08-.09-.12-.02-.03-.05-.06-.08-.09-.14-.16-.31-.3-.58-.41-1.5-.64-2.86.68-1.85,1.64,1.06,1.01,3.31.17,2.6-1Z"/>
          <path class="cls-10" d="m281.05,316.89s0-.01-.01-.02c-.02-.04-.06-.08-.09-.12-.02-.03-.05-.06-.07-.09-.14-.16-.31-.3-.58-.41-1.5-.64-2.86.68-1.85,1.64,1.06,1.01,3.31.17,2.6-1Z"/>
          <path class="cls-10" d="m223.22,341.03s-.03,0-.04,0c-.29-.04-.57,0-.76.17,0,0,0,0,0,0-.01,0-.01.02-.02.02-.01.02-.03.03-.04.05-.8.68.75,1.73,1.6,1.02.64-.54-.03-1.14-.72-1.26Z"/>
          <path class="cls-10" d="m102.06,303.32s-.03,0-.04,0c-.29-.04-.57,0-.76.17,0,0,0,0,0,0-.01,0-.01.02-.02.02-.02.02-.03.03-.04.05-.8.68.75,1.73,1.6,1.02.64-.54-.03-1.14-.72-1.26Z"/>
          <path class="cls-10" d="m153.6,332.17s-.03,0-.04,0c-.29-.04-.57,0-.76.17,0,0,0,0,0,0-.01,0-.01.02-.02.02-.02.02-.03.03-.04.05-.8.68.75,1.73,1.6,1.02.64-.54-.03-1.14-.72-1.26Z"/>
          <path class="cls-10" d="m310.88,294.87s-.03,0-.04,0c-.29-.04-.57,0-.76.17,0,0,0,0,0,0-.01,0-.01.02-.02.02-.02.02-.03.03-.04.05-.8.68.75,1.73,1.6,1.02.64-.54-.03-1.14-.72-1.26Z"/>
          <path class="cls-10" d="m226.33,347.36c-.72-1.25-3.28-1.12-3.47.2-.15,1.1,1.64,1.88,2.63,1.34.75-.24,1.25-.83.84-1.54Z"/>
          <path class="cls-10" d="m109.13,303.97c-.72-1.25-3.28-1.12-3.47.2-.15,1.1,1.64,1.88,2.63,1.34.75-.24,1.25-.83.84-1.54Z"/>
          <path class="cls-10" d="m246.58,297.84s.02,0,.03,0c.06,0,.12-.01.18-.02.05,0,.09,0,.14-.02.24-.03.47-.1.69-.23,1.22-.78-.14-2.24-1.66-1.93-1.6.33-1.09,2.21.63,2.19Z"/>
          <path class="cls-10" d="m241.06,299.69s.01-.02.02-.03c.13-.18.15-.4-.03-.59,0,0,0,0,0,0,0-.01-.02-.02-.03-.03-.02-.02-.03-.03-.05-.05-.68-.83-2.45-.17-1.74.7.53.65,1.49.43,1.83,0Z"/>
          <path class="cls-10" d="m192.61,299.18s0-.02,0-.03c0-.21-.11-.42-.38-.55,0,0,0,0,0,0-.01,0-.03,0-.04-.02-.02-.01-.05-.02-.07-.03-1.09-.55-2.23.62-1.09,1.2.85.44,1.55-.07,1.59-.57Z"/>
          <path class="cls-10" d="m261.49,333.22s0-.02,0-.03c0-.21-.11-.41-.38-.55,0,0,0,0,0,0-.01,0-.03,0-.04-.02-.02-.01-.05-.02-.07-.03-1.09-.55-2.23.62-1.09,1.2.85.44,1.55-.07,1.59-.57Z"/>
          <path class="cls-10" d="m87.53,319.97s0-.02,0-.03c0-.21-.11-.42-.38-.55,0,0,0,0,0,0-.01,0-.03,0-.04-.02-.02-.01-.05-.02-.07-.03-1.09-.55-2.23.62-1.09,1.2.85.44,1.55-.07,1.59-.57Z"/>
          <path class="cls-10" d="m162.58,351.48c1.81,0,2.32-1.82.64-2.47-1.39-.54-2.88.39-2.43,1.28.12.61.76,1.19,1.79,1.19Z"/>
          <path class="cls-10" d="m308,295.55c-.72-1.25-3.28-1.12-3.47.2-.15,1.1,1.64,1.88,2.63,1.34.75-.24,1.25-.83.84-1.54Z"/>
        </g>
        <path class="cls-15" d="m253.75,299.69c-1.75,1.38-2.36,3.32-1.62,5.14l3.43,8.25c1.23,2.92-1.12,5.91-5.25,6.69l-9.65,1.8c-1.64.3-3.08.98-4.09,1.94l-2.25,2.15c-5.47,5.17-14.15,8.16-23.46,8.05l-3.86-.05c-1.71-.03-3.37.35-4.72,1.07l-7.9,4.24c-3.39,1.79-8.23,1.27-10.89-1.15l-7.5-6.85c-1.65-1.51-4.26-2.35-6.91-2.22l-18.25.94c-4.08.2-7.77-1.89-8.48-4.77l-2.48-10.69c-.51-2.08-2.62-3.84-5.45-4.49l-11.65-2.69c-4.69-1.11-6.93-4.94-4.68-7.94l1.86-2.44,147.21-12.08c1.09,1.89.66,4.1-1.33,5.66l-12.07,9.45Z"/>
      </g>
    </g>
  </g>
</svg>